<svg width="110" height="110" viewBox="0 0 110 110" fill="none" xmlns="http://www.w3.org/2000/svg">
<path fill-rule="evenodd" clip-rule="evenodd" d="M0.222883 2.98525C0.588023 1.88783 1.374 0.980321 2.40803 0.462216C3.44205 -0.0558885 4.6395 -0.142183 5.73714 0.222303L7.27857 0.739991L7.51124 0.815609C11.1525 2.0313 14.2295 3.05505 16.6551 4.18349C19.2261 5.38174 21.4597 6.85918 23.1524 9.21496C24.8451 11.5591 25.5489 14.1475 25.8688 16.9686C26.1713 19.6211 26.1713 22.8668 26.1713 26.7058V42.1725C26.1713 50.5195 26.1829 56.3479 26.7704 60.7395C27.3463 65.009 28.3991 67.2658 30.0045 68.8771C31.6157 70.4883 33.8784 71.5353 38.1479 72.1112C42.5395 72.6987 48.3621 72.7103 56.7091 72.7103H97.4261C97.999 72.7103 98.5663 72.8231 99.0956 73.0424C99.6249 73.2616 100.106 73.583 100.511 73.988C100.916 74.3931 101.237 74.8741 101.457 75.4034C101.676 75.9326 101.789 76.4999 101.789 77.0728C101.789 77.6457 101.676 78.213 101.457 78.7423C101.237 79.2716 100.916 79.7525 100.511 80.1576C100.106 80.5627 99.6249 80.8841 99.0956 81.1033C98.5663 81.3225 97.999 81.4354 97.4261 81.4354H56.3891C48.4377 81.4354 42.0218 81.4354 36.9787 80.7548C31.7437 80.0568 27.3346 78.5445 23.833 75.0486C20.3371 71.5469 18.8306 67.1379 18.1268 61.9028C17.4462 56.8597 17.4462 50.4439 17.4462 42.4924V26.9501C17.4462 22.8028 17.4462 20.0573 17.2019 17.9575C16.9692 15.9682 16.5795 15.0084 16.0734 14.3162C15.5732 13.6182 14.788 12.9377 12.9731 12.0942C11.0536 11.2043 8.45354 10.3259 4.52144 9.01137L2.98001 8.4995C1.88366 8.13317 0.977517 7.3467 0.46057 6.31281C-0.0563777 5.27891 -0.141864 4.08212 0.222883 2.98525Z" fill="#F73B32"/>
<path opacity="0.5" d="M26.144 21.814C26.1673 23.3264 26.177 24.957 26.1731 26.7059V42.1726C26.1731 50.5196 26.1848 56.3479 26.7723 60.7395C26.8614 61.3794 26.9584 61.9766 27.0631 62.5311H85.9283C91.5066 62.5311 94.2928 62.5311 96.4798 61.0885C98.6669 59.646 99.7663 57.0866 101.959 51.9563L104.46 46.1396C109.166 35.146 111.516 29.6608 108.933 25.7345C106.351 21.8082 100.371 21.814 88.4121 21.814H26.144Z" fill="#F73B32"/>
<path d="M36.3515 91.6149C38.6656 91.6149 40.8848 92.5341 42.5211 94.1704C44.1574 95.8067 45.0766 98.0259 45.0766 100.34C45.0766 102.654 44.1574 104.873 42.5211 106.51C40.8848 108.146 38.6656 109.065 36.3515 109.065C34.0375 109.065 31.8183 108.146 30.182 106.51C28.5457 104.873 27.6265 102.654 27.6265 100.34C27.6265 98.0259 28.5457 95.8067 30.182 94.1704C31.8183 92.5341 34.0375 91.6149 36.3515 91.6149ZM97.4271 100.34C97.4271 98.0259 96.5079 95.8067 94.8716 94.1704C93.2353 92.5341 91.0161 91.6149 88.702 91.6149C86.388 91.6149 84.1688 92.5341 82.5325 94.1704C80.8962 95.8067 79.977 98.0259 79.977 100.34C79.977 102.654 80.8962 104.873 82.5325 106.51C84.1688 108.146 86.388 109.065 88.702 109.065C91.0161 109.065 93.2353 108.146 94.8716 106.51C96.5079 104.873 97.4271 102.654 97.4271 100.34Z" fill="#F73B32"/>
<g clip-path="url(#clip0_108_23)">
<path d="M67.7577 26.3258C68.0661 26.4121 68.3545 26.5583 68.6064 26.7561C68.8583 26.9539 69.0687 27.1995 69.2257 27.4787C69.3826 27.7578 69.483 28.0652 69.5211 28.3832C69.5592 28.7013 69.5342 29.0237 69.4477 29.332L62.2473 54.9859C62.0727 55.6084 61.658 56.1361 61.0944 56.4529C60.5308 56.7697 59.8644 56.8496 59.2418 56.6751C58.6193 56.5005 58.0916 56.0858 57.7748 55.5222C57.458 54.9586 57.3781 54.2922 57.5527 53.6696L64.753 28.0125C64.8395 27.7042 64.9859 27.416 65.1838 27.1643C65.3816 26.9126 65.6272 26.7023 65.9064 26.5455C66.1855 26.3887 66.4929 26.2885 66.8108 26.2505C67.1287 26.2125 67.451 26.2375 67.7593 26.3241L67.7577 26.3258ZM56.2852 32.8826C56.7416 33.3397 56.998 33.9592 56.998 34.6051C56.998 35.2511 56.7416 35.8706 56.2852 36.3276L51.1177 41.5L56.2884 46.6708C56.7455 47.128 57.0021 47.7481 57.002 48.3947C57.0018 49.0412 56.7449 49.6611 56.2876 50.1182C55.8303 50.5753 55.2102 50.8319 54.5637 50.8318C53.9172 50.8316 53.2972 50.5747 52.8402 50.1174L45.9453 43.2225C45.4888 42.7655 45.2324 42.146 45.2324 41.5C45.2324 40.8541 45.4888 40.2345 45.9453 39.7775L52.8385 32.8826C53.0649 32.6561 53.3337 32.4764 53.6295 32.3539C53.9253 32.2313 54.2424 32.1682 54.5627 32.1682C54.8829 32.1682 55.2 32.2313 55.4958 32.3539C55.7916 32.4764 56.0588 32.6561 56.2852 32.8826ZM70.7152 36.3276C70.4757 36.1045 70.2836 35.8354 70.1504 35.5364C70.0171 35.2374 69.9455 34.9146 69.9397 34.5873C69.934 34.2601 69.9942 33.935 70.1168 33.6314C70.2393 33.3279 70.4218 33.0522 70.6533 32.8208C70.8847 32.5893 71.1604 32.4068 71.464 32.2842C71.7675 32.1616 72.0926 32.1014 72.4199 32.1072C72.7471 32.113 73.0699 32.1846 73.3689 32.3179C73.6679 32.4511 73.937 32.6432 74.1602 32.8826L81.055 39.7759C81.512 40.233 81.7687 40.8529 81.7687 41.4992C81.7687 42.1455 81.512 42.7654 81.055 43.2225L74.1618 50.1174C73.9355 50.3438 73.6668 50.5234 73.3711 50.646C73.0753 50.7686 72.7584 50.8317 72.4382 50.8318C72.1181 50.8319 71.8011 50.7689 71.5053 50.6464C71.2095 50.524 70.9408 50.3445 70.7143 50.1182C70.4879 49.8919 70.3083 49.6232 70.1857 49.3275C70.0632 49.0317 70 48.7148 69.9999 48.3947C69.9999 48.0745 70.0629 47.7575 70.1853 47.4617C70.3077 47.166 70.4872 46.8972 70.7135 46.6708L75.8843 41.5L70.7152 36.3276Z" fill="white"/>
</g>
<defs>
<clipPath id="clip0_108_23">
<rect width="39" height="39" fill="white" transform="translate(44 22)"/>
</clipPath>
</defs>
</svg>
